<?xml version="1.0" standalone="no"?>
<!DOCTYPE svg PUBLIC "-//W3C//DTD SVG 20010904//EN"
 "http://www.w3.org/TR/2001/REC-SVG-20010904/DTD/svg10.dtd">
<svg version="1.0" xmlns="http://www.w3.org/2000/svg"
 width="16.000000pt" height="16.000000pt" viewBox="0 0 16.000000 16.000000"
 preserveAspectRatio="xMidYMid meet">
<metadata>
Created by potrace 1.11, written by Peter Selinger 2001-2013
</metadata>
<g transform="translate(0.000000,16.000000) scale(0.003125,-0.003125)"
fill="#000000" stroke="none">
<path d="M2360 4904 c-349 -32 -713 -149 -1025 -332 -199 -116 -463 -347 -619
-542 -207 -259 -365 -571 -441 -870 -50 -198 -67 -324 -72 -545 -7 -308 27
-535 123 -818 166 -486 494 -908 934 -1200 205 -136 515 -269 760 -326 246
-57 582 -76 820 -47 526 65 998 289 1369 650 334 326 549 705 656 1156 69 293
75 681 15 980 -96 474 -315 879 -661 1222 -190 188 -384 324 -629 442 -326
157 -613 224 -980 231 -113 1 -225 1 -250 -1z m1664 -1450 c14 -14 16 -112 16
-926 0 -834 -1 -913 -17 -930 -15 -17 -74 -18 -1460 -18 -1430 0 -1443 0
-1463 20 -20 20 -20 33 -20 929 0 814 2 911 16 925 14 14 160 16 1464 16 1304
0 1450 -2 1464 -16z"/>
<path d="M1874 3385 c-32 -49 23 -104 75 -75 24 12 29 68 9 88 -21 21 -66 14
-84 -13z"/>
<path d="M3162 3398 c-17 -17 -15 -64 4 -82 21 -22 50 -20 74 4 24 24 25 38 4
68 -17 24 -62 30 -82 10z"/>
<path d="M1909 2875 c-110 -40 -191 -113 -236 -210 -23 -51 -27 -73 -27 -150
-1 -77 3 -98 26 -147 14 -31 45 -77 68 -102 l43 -46 -47 0 c-68 0 -96 -30 -96
-105 0 -46 4 -60 25 -80 l24 -25 894 0 c890 0 894 0 921 21 23 18 26 28 26 80
0 77 -27 109 -90 109 l-41 0 35 43 c209 256 41 627 -284 627 -314 0 -491 -357
-300 -605 23 -30 47 -56 53 -59 7 -2 -133 -5 -311 -5 l-324 -1 37 42 c176 206
94 520 -160 609 -64 22 -181 25 -236 4z m206 -215 c97 -60 100 -224 6 -285
-48 -31 -91 -39 -140 -25 -104 28 -159 136 -117 233 40 93 163 131 251 77z
m1077 20 c133 -37 173 -205 69 -293 -61 -51 -149 -55 -216 -11 -62 40 -84 157
-44 224 26 41 50 61 99 77 45 15 48 15 92 3z"/>
</g>
</svg>
